<svg width="48" height="48" viewBox="0 0 48 48" fill="none" xmlns="http://www.w3.org/2000/svg">
  <circle cx="24" cy="24" r="18" fill="#2C3033"/>
  <path fill-rule="evenodd" clip-rule="evenodd" d="M20.5257 18.4926C20.5257 16.5652 22.0911 15 24.0257 15C25.9602 15 27.5257 16.5652 27.5257 18.4926C27.5257 20.4199 25.9602 21.9851 24.0257 21.9851C22.0911 21.9851 20.5257 20.4199 20.5257 18.4926ZM24.0257 13C20.9897 13 18.5257 15.4575 18.5257 18.4926C18.5257 21.5276 20.9897 23.9851 24.0257 23.9851C27.0617 23.9851 29.5257 21.5276 29.5257 18.4926C29.5257 15.4575 27.0617 13 24.0257 13ZM15.9443 33.3329C17.0338 30.2148 20.0061 27.9785 23.5003 27.9785C26.9945 27.9785 29.9667 30.2148 31.0562 33.3329C31.2384 33.8543 31.8088 34.1292 32.3301 33.9471C32.8515 33.7649 33.1265 33.1945 32.9443 32.6732C31.5824 28.7757 27.8692 25.9785 23.5003 25.9785C19.1314 25.9785 15.4181 28.7757 14.0562 32.6732C13.8741 33.1945 14.149 33.7649 14.6704 33.9471C15.1918 34.1292 15.7621 33.8543 15.9443 33.3329Z" fill="#FFCF01"/>
</svg>
